# xmcd
#
# Track frame offsets: 
#        150
#        16336
#        33667
#        57606
#        79417
#        103366
#        121274
#        136034
#        150071
#        167480
#        194634
#        213952
#        230419
#
# Disc length: 3311 seconds
#
# Revision: 0
# Processed by: cddbd v1.5.2PL0 Copyright (c) Steve Scherf et al.
# Submitted via: ExactAudioCopy v0.99pb5
#
DISCID=ab0ced0d
DTITLE=Mussel Shell - Everybody Gets The Blues
DYEAR=2001
DGENRE=Blues
TTITLE0=Snakebite Jive
TTITLE1=Back Door Man
TTITLE2=Tabasco Road
TTITLE3=Perfect Love
TTITLE4=Wetherman
TTITLE5=Pecan Pie
TTITLE6=Mistress Of The Blues
TTITLE7=Three Wishes
TTITLE8=Billy Gumbo
TTITLE9=The Way It Is
TTITLE10=Everyboby Gets The Blues
TTITLE11=Blind Alabama
TTITLE12=Voodoo Dog
EXTD=
EXTT0=
EXTT1=
EXTT2=
EXTT3=
EXTT4=
EXTT5=
EXTT6=
EXTT7=
EXTT8=
EXTT9=
EXTT10=
EXTT11=
EXTT12=
PLAYORDER=
